<?xml version="1.0" encoding="UTF-8"?>
<svg id="Capa_2" data-name="Capa 2" xmlns="http://www.w3.org/2000/svg" viewBox="0 0 180.01 180">
  <defs>
    <style>
      .cls-1 {
        fill: #535353;
      }

      .cls-2 {
        fill: #fbe29f;
      }

      .cls-3 {
        fill: #e95b70;
      }

      .cls-4 {
        fill: #fecd71;
      }

      .cls-5 {
        fill: #656565;
      }

      .cls-6 {
        fill: #575757;
      }

      .cls-7 {
        fill: #555;
      }

      .cls-8 {
        fill: #696969;
      }

      .cls-9 {
        fill: #676767;
      }

      .cls-10 {
        fill: #fe8d9d;
      }
    </style>
  </defs>
  <g id="Capa_1-2" data-name="Capa 1">
    <g>
      <path d="M83.87.35c.27,0,.38-.07.35-.35h11.23c-.03.28.08.35.35.35s.38-.07.35-.35h.35c1.01.4,2.58.59,3.69.7,68.06,6.79,102.67,86.91,62.22,142.22C116.91,205.11,19.79,184.45,2.28,110.53L0,96.84v-.7c.28.03.35-.08.35-.35s-.07-.38-.35-.35v-11.23c.28.03.35-.08.35-.35s-.07-.38-.35-.35c0-.23-.02-.47,0-.7,1.72-24.11,14.91-48.93,34.07-63.65,1.84-1.41,6.71-6.01,8.38-2.67.49.98.58,2.02.02,3-.46.8-4.98,3.74-6.15,4.73-60.23,50.67-26.7,148.25,51.39,150.17,38.09.94,73.03-24.83,83.41-61.33C186.76,58.13,144.56,3.93,87.73,5.26c-13.25.31-26.04,3.78-37.75,9.82-1.45.29-2.27-.61-3.3-1.39-.1-1.37-.04-2.4,1.07-3.32,1.63-1.35,7.83-3.82,10.07-4.66,7.87-2.97,16.39-4.88,24.8-5.38l.55-.33h.35c-.03.28.08.35.35.35Z"/>
      <path class="cls-8" d="M83.87.35c-.27,0-.38-.07-.35-.35h.35v.35Z"/>
      <path class="cls-6" d="M83.87.35v-.35h.35c.03.28-.08.35-.35.35Z"/>
      <path class="cls-7" d="M95.8.35c-.27,0-.38-.07-.35-.35h.35v.35Z"/>
      <path class="cls-5" d="M95.8.35v-.35h.35c.03.28-.08.35-.35.35Z"/>
      <path class="cls-9" d="M.36,83.86H0v-.35c.28-.03.35.08.35.35Z"/>
      <path class="cls-1" d="M0,84.21v-.35h.35c0,.27-.07.38-.35.35Z"/>
      <path class="cls-7" d="M.36,95.79H0v-.35c.28-.03.35.08.35.35Z"/>
      <path class="cls-5" d="M0,96.14v-.35h.35c0,.27-.07.38-.35.35Z"/>
      <path class="cls-10" d="M87.73,174.39c-2.93-4.8-2.92-11,0-15.79,7.51.22,15.55-.87,22.73-3.06,2.73-.83,10.29-2.62,8.5-6.41l4.56-2.46c.64.95,2.2,1.48,3.33,1.08,1.75-.61,6.33-4.42,7.9-5.81,22.73-20.14,30.31-52.28,17.84-80.31-3.25-7.31-7.89-14.62-16.27-7.6-4.49,3.76-8.5,9.09-12.97,12.99-.42-1.26-3.14-2.9-3.51-3.5-.71-1.17.59-3.45-1.05-4.92-2.47-2.21-5.07,1.14-4.44,3.82l-4.87,2.15v-5.79l16.78-16.9c4.84-8.34-1.77-11.96-8.47-14.91-9.33-4.1-19.85-6.23-30.06-5.9-2.92-4.79-2.93-10.99,0-15.79,56.84-1.33,99.03,52.86,83.41,107.79-10.38,36.5-45.32,62.26-83.41,61.33Z"/>
      <path class="cls-3" d="M87.73,5.26c-2.93,4.8-2.92,11,0,15.79-46.69,1.49-78.53,48.37-62.46,92.46,2.63,7.23,7.82,20,17.38,12.11,5.58-4.6,10.58-11.35,16.13-16.15h5.79l-2.15,4.87c-2.68-.63-6.04,1.97-3.82,4.44,1.47,1.64,3.75.33,4.92,1.05.6.37,2.24,3.09,3.5,3.51-3.9,4.48-9.22,8.48-12.99,12.97-7.11,8.49.5,13.15,7.84,16.39,7.97,3.51,17.13,5.65,25.85,5.9-2.92,4.79-2.93,10.99,0,15.79C9.63,172.47-23.9,74.89,36.33,24.22c1.17-.98,5.69-3.92,6.15-4.73.56-.98.47-2.02-.02-3l4.21-2.81c1.03.79,1.85,1.68,3.3,1.39,11.71-6.04,24.5-9.51,37.75-9.82Z"/>
      <path d="M87.73,21.05c10.21-.32,20.74,1.8,30.06,5.9,6.7,2.95,13.32,6.57,8.47,14.91l-16.78,16.9v5.79l4.87-2.15c-.63-2.68,1.97-6.04,4.44-3.82,1.64,1.47.33,3.75,1.05,4.92.37.6,3.09,2.24,3.51,3.5,4.48-3.9,8.48-9.22,12.97-12.99,8.39-7.02,13.02.3,16.27,7.6,12.47,28.03,4.89,60.16-17.84,80.31-1.57,1.39-6.15,5.2-7.9,5.81-1.14.4-2.7-.13-3.33-1.08-.69-1.03-.4-2.33.34-3.24l4.21-3.24-7.89-7.9c-7.82,7.93-27.64,13.33-37.26,7.08-1.05-.68-2.83-2.95-3.51-3.15-1.71-.51-6.6.78-7.13-2.37-.63-3.78,3.78-3.43,6.29-3.35l2.14-4.87c-2.69.66-5.34-.13-8.06-.19l-15.61,15.63c-.79,2.6.37,3.22,2.27,4.39,13.16,8.07,32.69,9.55,47.38,5.61,2.64-.71,7.13-3.01,9.32-3.32,1.38-.2,2.34.08,2.96,1.39,1.78,3.79-5.77,5.57-8.5,6.41-7.18,2.19-15.22,3.28-22.73,3.06-8.72-.26-17.88-2.4-25.85-5.9-7.35-3.23-14.95-7.89-7.84-16.39,3.76-4.49,9.09-8.5,12.99-12.97-1.26-.42-2.9-3.14-3.5-3.51-1.17-.71-3.45.59-4.92-1.05-2.21-2.47,1.14-5.07,3.82-4.44l2.15-4.87h-5.79c-5.55,4.8-10.55,11.54-16.13,16.15-9.57,7.89-14.75-4.88-17.38-12.11C9.19,69.42,41.03,22.54,87.73,21.05ZM107.73,52.28l.88-.35c1.75-2.51,13.49-12.37,13.85-14.23.34-1.76-.51-2.52-1.86-3.39-5.28-3.43-15.28-6.36-21.52-7.25C49.86,20.06,11.7,69.66,31.77,115.43c1.07,2.44,3.25,8.67,6.67,6.7l13.84-13.88-5.51-4.66c-2.55-.26-8.37,1.02-7.4-3.33.65-2.93,4.77-1.8,6.93-2.02,1.55-8.4,11.46-13.08,18.96-15.08.07-.46.09-.45-.22-.73-.87-.78-2.6-1.67-3.64-2.6-6.21-5.55-12.85-14.03-12.27-22.81.05-.83.72-2.26.62-2.77-.24-1.25-4.31-2.59-1.34-5.32,2.66-2.44,3.97.96,5.15,1.19.38.07,1.95-.85,2.79-.97,8.63-1.22,18.1,6.19,23.48,12.24.64.72,2.46,3.71,2.63,3.86.62.53.58-.16.73-.49.44-.99.67-2.38,1.11-3.46,2.46-6.09,6.85-13.95,13.93-15.02-.15-2.52-.52-8.18,3.62-6.94,2.79.84,1.14,5.42,1.73,7.4.36,1.22,4.2,3.44,4.14,5.51ZM82.81,77.19c-.07-.38-.78-.82-.97-1.31-3.13-8.09-7.57-14.39-15.29-18.75-5.48-3.1-14.11-5.52-11.64,4.27,1.72,6.83,9.2,14.72,15.26,18.07,1.53.85,6.6,2.4,6.95,3.57,1.39,4.71-4.72,3.85-7.72,4.42-5.19.99-13.37,4.35-16.56,8.7-5.55,7.56,7.18,8.38,11.91,8.05,9.72-.67,14.18-4.4,21.56-9.49,3.84-2.64,6.64,1.24,4.21,3.86-5.45,5.88-16.66,7.51-21.2,13.36-6.29,8.12,7.13,8.79,12.24,8.39,8.94-.71,14.37-4.72,21.23-9.47,3.61-2.5,6.77,1.44,3.86,4.21-4.45,4.23-11.57,6.19-16.6,9.19-3.91,2.33-9.99,8.17-3.15,11.08,8.46,3.6,22.92-.74,29.58-6.75.6-.54,1.24-1.95,1.74-2.29.86-.6,2.49-.75,3.34,0l10.57,10.5,4.66-4.41c.15-.83-9.17-9.01-10.34-10.64-2.06-2.86.58-3.58,1.94-5.11,5.81-6.49,8.86-16.58,8.07-25.26-.52-5.61-3.41-10.51-8.95-5.45-5.53,5.04-7.17,16.12-12.97,21.07-2.25,1.92-5.2,0-4.31-2.9,6.56-8.28,11.29-18.62,9.99-29.46-1.16-9.67-7.09-8.26-11.56-1.58-3.66,5.47-5.1,12.57-10.26,17.46-2.49,2.36-5.75.12-4.56-2.81.43-1.06,3.42-4.29,4.38-5.79,4.41-6.96,7.51-17.28,5.43-25.45-1.16-4.57-3.71-6.73-7.9-3.34s-7.27,10.91-8.25,15.96c-.69,3.54.45,9.1-4.72,8.08ZM130.5,78.56c.07-2.15-.63-6.3,2.67-6.3,4.02,0,2.49,5.23,3.05,7.14.2.68,2.48,2.47,3.15,3.51,3.2,4.93,2.95,12.97,1.92,18.55-1.25,6.84-4.24,13.61-9.01,18.71l7.89,7.89c14.04-18.38,17.06-43.14,7.49-64.33-1.12-2.48-3.32-8.57-6.81-6.56l-15.43,15.47c0,2.6.91,5.16.19,7.71l4.88-1.79Z"/>
      <path class="cls-2" d="M118.25,126.32l-11.58-11.23c2.91-2.77-.25-6.71-3.86-4.21l-12.28-12.28c2.43-2.62-.37-6.5-4.21-3.86-2.77-3.26-4.7-7.76-4.58-12.11.04-1.38,1.2-4.73,1.07-5.43,5.18,1.02,4.04-4.54,4.72-8.08.98-5.04,4.21-12.68,8.25-15.96s6.74-1.23,7.9,3.34c2.08,8.17-1.02,18.49-5.43,25.45-.95,1.5-3.95,4.73-4.38,5.79-1.19,2.93,2.07,5.17,4.56,2.81,5.15-4.89,6.6-11.99,10.26-17.46,4.47-6.67,10.4-8.09,11.56,1.58,1.3,10.84-3.43,21.18-9.99,29.46-.9,2.91,2.05,4.82,4.31,2.9,5.8-4.95,7.44-16.03,12.97-21.07,5.54-5.05,8.44-.16,8.95,5.45.8,8.68-2.25,18.76-8.07,25.26-1.36,1.52-4.01,2.25-1.94,5.11,1.17,1.62,10.49,9.81,10.34,10.64l-4.66,4.41-10.57-10.5c-.84-.74-2.47-.59-3.34,0Z"/>
      <path class="cls-4" d="M82.81,77.19c.13.7-1.03,4.05-1.07,5.43-.12,4.35,1.81,8.85,4.58,12.11-7.39,5.08-11.84,8.82-21.56,9.49-4.74.32-17.46-.5-11.91-8.05,3.2-4.35,11.37-7.71,16.56-8.7,2.99-.57,9.11.3,7.72-4.42-.35-1.17-5.42-2.73-6.95-3.57-6.06-3.36-13.54-11.24-15.26-18.07-2.47-9.8,6.16-7.37,11.64-4.27,7.71,4.36,12.16,10.67,15.29,18.75.19.49.9.93.97,1.31Z"/>
      <path class="cls-4" d="M102.81,110.88c-6.87,4.75-12.29,8.76-21.23,9.47-5.12.41-18.53-.26-12.24-8.39,4.54-5.86,15.75-7.48,21.2-13.36l12.28,12.28Z"/>
      <path class="cls-4" d="M106.67,115.09l11.58,11.23c-.5.35-1.14,1.75-1.74,2.29-6.67,6.01-21.13,10.35-29.58,6.75-6.84-2.91-.76-8.75,3.15-11.08,5.02-3,12.15-4.96,16.6-9.19Z"/>
    </g>
  </g>
</svg>