<?xml version="1.0" encoding="UTF-8"?>
<svg id="Capa_2" data-name="Capa 2" xmlns="http://www.w3.org/2000/svg" viewBox="0 0 183.1 183">
  <defs>
    <style>
      .cls-1 {
        fill: #646464;
      }

      .cls-2 {
        fill: #54e260;
      }

      .cls-3 {
        fill: #e6efee;
      }

      .cls-4 {
        fill: #545454;
      }
    </style>
  </defs>
  <g id="Capa_1-2" data-name="Capa 1">
    <g>
      <path d="M85.61.36c.27,0,.39-.07.36-.36h11.42c-.03.28.08.36.36.36s.39-.07.36-.36h.36l10.77,1.54c36.06,6.87,65.42,36.12,72.24,72.24l1.54,10.41c-.22,4.68.3,9.63,0,14.27-5.11,78.27-104.13,113.2-158.04,55.48S8.95,4.87,84.9,0h.36c-.03.28.08.36.36.36ZM86.97,10.81C24.05,14.39-10.77,86.55,26.11,138.16c32.05,44.85,98.81,44.99,130.99.21,39.62-55.14-2.74-131.4-70.13-127.56Z"/>
      <path class="cls-1" d="M85.61.36c-.27,0-.39-.07-.36-.36h.36v.36Z"/>
      <path class="cls-4" d="M85.61.36v-.36h.36c.03.28-.08.36-.36.36Z"/>
      <path class="cls-4" d="M97.74.36c-.27,0-.39-.07-.36-.36h.36v.36Z"/>
      <path class="cls-1" d="M97.74.36v-.36h.36c.03.28-.08.36-.36.36Z"/>
      <path class="cls-2" d="M86.97,10.81c67.39-3.84,109.75,72.43,70.13,127.56-32.18,44.78-98.94,44.65-130.99-.21C-10.77,86.55,24.05,14.39,86.97,10.81ZM125.49,50.4c-3,.36-6.19,2.1-8.49,4l-37.32,37.26c-7.18-5.27-12.79-16.04-22.47-17.05-15.17-1.58-24.63,15.78-14.77,27.61,7.75,9.3,18.83,17.74,27,26.86,6.11,4.75,15.18,4.38,20.99-.64l50.48-50.48c9.83-12.33.46-29.49-15.43-27.55Z"/>
      <path d="M125.49,50.4c15.88-1.93,25.26,15.23,15.43,27.55l-50.48,50.48c-5.81,5.03-14.89,5.39-20.99.64-8.17-9.13-19.25-17.57-27-26.86-9.86-11.83-.41-29.19,14.77-27.61,9.68,1.01,15.29,11.78,22.47,17.05l37.32-37.26c2.29-1.9,5.49-3.63,8.49-4ZM126.54,61.08c-1,.21-2.49,1.38-3.3,2.05l-41.3,41.11c-3.01,1.38-4.97.04-7.22-1.85-5.27-4.44-10.58-11.99-15.86-15.89-5.88-4.35-13.07,2.87-7.87,9.29,6.84,8.43,17.26,16.05,24.45,24.42,2.49,2.14,6.25,1.98,8.56-.34,16.45-16.93,33.94-33.05,49.77-50.47,1.75-5-2.06-9.41-7.25-8.32Z"/>
      <path class="cls-3" d="M126.54,61.08c5.19-1.09,9,3.32,7.25,8.32-15.83,17.42-33.32,33.54-49.77,50.47-2.31,2.32-6.07,2.48-8.56.34-7.19-8.37-17.62-15.99-24.45-24.42-5.21-6.42,1.99-13.64,7.87-9.29,5.27,3.9,10.59,11.46,15.86,15.89,2.25,1.89,4.21,3.23,7.22,1.85l41.3-41.11c.81-.67,2.3-1.84,3.3-2.05Z"/>
    </g>
  </g>
</svg>