<?xml version="1.0" encoding="UTF-8"?>
<svg id="Capa_2" data-name="Capa 2" xmlns="http://www.w3.org/2000/svg" viewBox="0 0 179.09 179">
  <defs>
    <style>
      .cls-1 {
        fill: #fece5d;
      }

      .cls-2 {
        fill: #d8435a;
      }

      .cls-3 {
        fill: #456ea1;
      }

      .cls-4 {
        fill: #28cf5b;
      }

      .cls-5 {
        fill: #d7425a;
      }

      .cls-6 {
        fill: #020100;
      }

      .cls-7 {
        fill: #fe5368;
      }

      .cls-8 {
        fill: #5c86bc;
      }

      .cls-9 {
        fill: #fe973b;
      }

      .cls-10 {
        fill: #fe7d40;
      }

      .cls-11 {
        fill: #feb445;
      }

      .cls-12 {
        fill: #020101;
      }

      .cls-13 {
        fill: #d8435b;
      }
    </style>
  </defs>
  <g id="Capa_1-2" data-name="Capa 1">
    <g>
      <path d="M158.76,0c6.73,3.09,2.73,13.02,3.91,18.94.26,1.17,1.59,1.6,2.38,2.51,7.97,9.24,7.88,31.01,5.81,42.47-1.03,5.72-4.35,17.83-7.42,22.58-.76,1.18-2.22,2.1-3.63,1.43-.4-.19-1.09-.93-1.24-1.37-.69-2.07,2.15-6.94,2.99-9.26,5.13-14.23,7.83-34.05,2.01-48.43-1.16-2.86-6.2-6.74-6.2-8.8V5.23h-5.23v11.34c0,.96-1.39,4.31-2.09,5.06-1.02,1.09-3.46,1.93-4.71,3.14-3.53,3.44-10.23,20.21-13.26,25.82-12.95,24.02-30.51,44.14-53.92,58.45,7.27,8.23,9.09,19.2,6.98,29.82-.63,3.19-2.12,6.35-3.14,9.42,7.51-1.88,15-4.28,21.79-8.04.84-3.07.72-6.7,1.58-9.76,2.55-8.98,10.29-18.17,18.49-22.51,1.2-.64,4.86-1.85,5.36-2.23.16-.12,1.33-2.84,1.82-3.5,1.55-2.09,4.21-4.05,6.78-4.56-1.37-3.79-1.99-9.44-1.38-13.41.38-2.48,3.55-4.73,5.99-4.64,2.01.07,6.28,2.8,7.94,4.1,2.4,1.87,5.64,5.49,7.33,8.03,3.68,5.54,5.48,13.1,6.81,19.54,7.99,6.17,12.77,15.24,14.48,25.13-.2,2.93.27,6.18,0,9.07-.85,9.24-6.92,19.44-14.14,25.11-23.17,18.2-56.35,4.12-60.71-24.42-8.02,3.88-16.53,6.46-25.28,8.22-4.83,7.87-12.13,15.85-20.96,19.17-5.64,2.12-11.99,1.57-17.95,1.59-19.02.06-33.11-15.92-37.97-33.24-5.82-20.76,4.23-40.91,26.96-41.79.43-.39-1.74-2.21-2.08-2.62-2.33-2.81-4.26-5.99-5.6-9.4-.94-2.4-3.19-8.88-3.45-11.2-.49-4.27,3.63-7.45,7.65-5.9,2.24.87,9.88,5.99,11.87,7.67,2.86,2.41,4.9,5.61,6.28,9.07l1.91,6.8c4.04-6.2,9.37-11.56,15.87-15.18,1.72-.96,6.83-3.53,8.56-3.49,2.42.05,5.36,3.66,3.32,5.95-1.83,2.05-3.1.05-4.02-.04-.74-.07-5.59,2.49-6.56,3.07-6.18,3.72-11.65,9.71-14.55,16.33,8.51-2.52,18.15-1.1,25.44,4.03,23.1-12.92,40.9-33.33,53.48-56.48,3.93-7.24,6.96-15.23,10.8-22.35,2.2-4.09,4.61-6.45,8.5-8.95,1.25-5.76-2.49-14.22,4.02-17.44h8.37ZM40.47,101.54c-.17-5.31-.78-11.07-3.76-15.61-2.24-3.41-8.19-7.04-11.84-9.1-.33-.19-1.57-1-1.85-.77,2.74,10.91,6.87,20.24,17.44,25.47ZM141.66,85.31v6.98c0,.52.87,3.06,1.13,3.75,2.73,7.22,9.92,9.75,15.79,13.86.25.08.2-.26.18-.52-.12-1.79-2.42-8.49-3.23-10.38-2.64-6.16-7.27-10.91-13.16-14.06l-.71.37ZM167.49,122.12c-1.14-1.55-4.81-5.96-6.43-6.66-1.97-.85-4.77.19-6.66-2.06-.48.03-1.64,6.83-5.39,4.33-2.89-1.93.9-5.14.28-7.23l-5.01-3.73c-.35,2.12.55,6.07-2.78,5.96-.9-.03-2.63-1.09-2.63-1.95v-7.85c-3.28.64-5.48,4.68-5.25,7.84.15,2.07,2.26,4.33,1.08,6.31-2.44,4.11-6.68-2.7-5.96-5.43-17.26,6.99-24.31,27.76-15.88,44.32,1.54,3.02,5.56,8.62,8.56,10.11,11.69,10.26,29.87,9.49,41.36-.69,12.57-11.14,14.67-29.69,4.7-43.28ZM24.08,165.04c6.83,4.8,8.88,4.56,16.91,4.52s11.96,1.37,19.49-3.19c15.9-9.63,27.83-37.19,14.2-52.97-6.39-7.4-16.51-9.92-25.81-6.79-2.06.69-3.73,1.94-5.78,2.56-14.55-8.86-33.64-1.79-37,15.37-2.84,14.53,6.2,32.21,17.99,40.49Z"/>
      <path d="M93.86,0c1.25,1.32,1.97,2.34,1.05,4.18.93,0,1.28-.96,2.29-1.03,2.75-.19,4.03,3.11,1.9,4.87,2.44-.45,5.18,1.06,4,3.83-.31.73-1.9,1.41-1.94,1.63-.09.56.65,1.85.73,2.74.69,8.26-2.8,13.16-9.67,17.21-15.96,9.41-32.58,5.27-24.97-16.25,3.5-9.92,11-18.48,22.55-15.12l1.62-2.05h2.44ZM70.83,27.91c.73,8.77,13.66,3.77,18.38,1.11,8.18-4.63,10.68-12.63,2.91-19.25-12.01-10.23-22.18,7.28-21.28,18.14Z"/>
      <path d="M109.21,38.73c.9.1,1.04-.93,1.94-1.05,2.85-.39,4.47,3.02,2.25,4.89,1.82-.23,3.91.21,4.18,2.3s-1.11,1.95-1.33,2.83c-.18.71.63,2.11.64,3.07.01,1.36-.81,3.56-1.59,4.69-.44.63-1.71,1.46-1.85,2.01-.17.66.52,1.62.62,2.4.71,5.56-3.92,9.2-9.22,8.87-.75-.05-1.75-.62-2.1-.58-.54.06-2.88,3.33-6.62,3.4-1.15.02-3.14-.71-3.45-.65-.43.08-1.55,1.53-2.2,1.97-7.45,4.97-15.99-4.04-11.09-11.08.44-.64,1.69-1.44,1.85-2.02.25-.93-.74-2.73-.57-4.36.09-.84.61-2.41,1.02-3.18.43-.81,2.3-2.39,2.35-2.55.17-.56-.55-2-.63-2.78-.46-4.55,3.44-9.09,8.15-8.87,1.01.05,2.65.9,3.44.73.21-.04,1.83-2.19,3.27-2.75,2.86-1.11,4.84.19,6.14-.13.69-.17.82-1.29,2.16-1.37,2.34-.15,3.78,2.15,2.62,4.22ZM102.24,48.5c-.69-2.53,1.78-3.15,1.78-5.06,0-2.21-2.37-3.43-4.22-2.09-1.2.87-1.2,3.5-3.4,3.95-2.7.55-3.49-2.8-6.37-1.5-3.51,1.58.93,4.81.55,7.15-.57,3.57-5.22,1.77-4.39,6.09.46,2.37,4.42,2.47,4.85-.71.28-2.03-.93-5.01,1.97-5.38,4.02-.51,2.11,4.2,5.02,5.08,1.97.6,3.37-2.24,5.59-1.25,3.6,1.6.09,5.53-2.79,6.28-2.22.58-3.68.25-5.77-.62-1.56,2.39-3.85,3.45-6.68,3.63-1.39.09-3.86-.99-4.74.91-1.17,2.51,1.25,4.95,3.55,3.56,1.7-1.03,1.2-3.8,4.21-4.19,2.35-.31,4.18,3.57,6.55,1.15,1.33-1.35.89-4.67,4.98-3.74,1.47.76,3.08,3.12,5.04,1.03,2.5-2.67-1.67-4.1-1.07-6.97.54-2.58,3.4-2.25,4.07-3.37.94-1.58.2-3.85-1.67-4.23-2.34-.48-2.98,2.81-5.94,1.43-.22-.1-1.09-1.01-1.13-1.14Z"/>
      <path d="M47.73,33.6c27.8-2.75,29.71,39.95,2.34,40.4-25.13.41-27.6-37.9-2.34-40.4ZM39.08,63.5c13.71,15.1,35.7-6.67,20.59-20.59-13.8-12.7-33.27,6.62-20.59,20.59Z"/>
      <path class="cls-7" d="M74.67,113.4c5.01,16.26-4.51,36.32-17.69,45.99-10.19,7.48-20.99,5.42-32.91,5.65-11.78-8.28-20.83-25.97-17.99-40.49,3.36-17.16,22.45-24.24,37-15.37,2.04-.63,3.72-1.87,5.78-2.56,9.3-3.13,19.42-.61,25.81,6.79Z"/>
      <path class="cls-1" d="M150.39,83.74c-1.67-1.29-5.94-4.02-7.94-4.1-2.44-.09-5.61,2.16-5.99,4.64-.61,3.96,0,9.62,1.38,13.41-2.57.51-5.24,2.48-6.78,4.56-.49.66-1.66,3.38-1.82,3.5-.5.38-4.16,1.59-5.36,2.23-8.2,4.34-15.93,13.54-18.49,22.51-5.54,3.25-11.46,6.09-17.61,8.03-.66.21-2.04.87-2.62.34,2.12-10.63.29-21.59-6.98-29.82,23.41-14.31,40.96-34.43,53.92-58.45,3.03-5.61,9.73-22.38,13.26-25.82,1.25-1.22,3.69-2.05,4.71-3.14.31,1.73,1.01,3.38,1.95,4.86,1.2,1.89,3.77,3.59,4.51,5.26.82,1.83,1.46,5.54,1.81,7.61,2.6,15.68-.99,30.38-7.92,44.38Z"/>
      <path class="cls-9" d="M121.43,166.09c-3-1.49-7.02-7.09-8.56-10.11-8.43-16.56-1.37-37.33,15.88-44.32-.72,2.73,3.51,9.54,5.96,5.43,1.18-1.99-.93-4.24-1.08-6.31-.23-3.16,1.97-7.21,5.25-7.84v7.85c0,.85,1.73,1.92,2.63,1.95,3.33.11,2.43-3.84,2.78-5.96l5.01,3.73c.63,2.09-3.17,5.3-.28,7.23,3.74,2.5,4.9-4.3,5.39-4.33,1.89,2.25,4.69,1.21,6.66,2.06,1.61.69,5.29,5.11,6.43,6.66,8.24,26.16-13.69,51.29-40.83,45.54-1.57-.33-3.83-.87-5.23-1.57ZM124.82,121.14c-2.43.5-2.86,3.96-.51,4.91,4.41,1.79,4.88-5.81.51-4.91ZM131.8,130.91c-2.43.5-2.86,3.96-.51,4.91,4.41,1.79,4.88-5.81.51-4.91ZM117.84,138.58c-2.43.5-2.86,3.96-.51,4.91,4.41,1.79,4.88-5.81.51-4.91Z"/>
      <path class="cls-11" d="M150.04,21.63c.7-.75,2.09-4.1,2.09-5.06V5.23h5.23v14.83c0,2.06,5.04,5.94,6.2,8.8,5.82,14.38,3.12,34.2-2.01,48.43-.84,2.33-3.69,7.2-2.99,9.26.15.44.84,1.18,1.24,1.37l-2.09,3.84c-1.69-2.54-4.93-6.16-7.33-8.03,6.92-14,10.52-28.7,7.92-44.38-.34-2.07-.99-5.78-1.81-7.61-.74-1.67-3.31-3.37-4.51-5.26-.94-1.48-1.64-3.13-1.95-4.86Z"/>
      <path class="cls-13" d="M24.08,165.04c11.92-.23,22.72,1.84,32.91-5.65,13.17-9.68,22.7-29.73,17.69-45.99,13.63,15.78,1.7,43.34-14.2,52.97-7.53,4.56-11.35,3.15-19.49,3.19s-10.08.28-16.91-4.52Z"/>
      <path class="cls-10" d="M121.43,166.09c1.41.7,3.66,1.24,5.23,1.57,27.14,5.75,49.07-19.38,40.83-45.54,9.96,13.59,7.87,32.13-4.7,43.28-11.49,10.18-29.67,10.95-41.36.69Z"/>
      <path class="cls-4" d="M141.66,85.31l.71-.37c5.89,3.15,10.53,7.9,13.16,14.06.81,1.89,3.11,8.59,3.23,10.38.02.26.07.61-.18.52-5.88-4.12-13.07-6.65-15.79-13.86-.26-.7-1.13-3.23-1.13-3.75v-6.98Z"/>
      <path class="cls-4" d="M40.47,101.54c-10.57-5.23-14.7-14.56-17.44-25.47.28-.23,1.51.58,1.85.77,3.65,2.06,9.6,5.68,11.84,9.1,2.97,4.54,3.59,10.3,3.76,15.61Z"/>
      <path class="cls-11" d="M105.38,130.5c-.87,3.05-.75,6.68-1.58,9.76-6.79,3.76-14.28,6.16-21.79,8.04,1.02-3.07,2.5-6.23,3.14-9.42.58.53,1.96-.13,2.62-.34,6.15-1.94,12.07-4.78,17.61-8.03Z"/>
      <path class="cls-7" d="M92.12,9.77c.28,2.64-.46,4.92-1.4,7.33-1.48.17-1.54,1.34-2.09,2.09-2.51,3.4-5.73,5.31-9.77,6.63-.03-.09-1.31-1.06-1.49-1.14-1.59-.69-2.7.17-3.4,1.49-.29.55-.33,1.23-.41,1.33-.21.25-2.21.46-2.73.41-.9-10.87,9.27-28.37,21.28-18.14ZM82.94,9.85c-2.77.64-2.01,5.54,1.17,5.01,3.36-.55,2.99-5.97-1.17-5.01ZM74.41,21.55c2.19,2.38,6.2-1.08,3.91-3.74-2.15-2.5-6.27,1.17-3.91,3.74ZM85.75,21.55c2.36-2.57-1.76-6.24-3.91-3.74-2.29,2.66,1.72,6.12,3.91,3.74Z"/>
      <path class="cls-13" d="M70.83,27.91c.52.04,2.52-.16,2.73-.41.08-.1.12-.78.41-1.33-.89,5.36,6.46,4.01,4.88-.35,4.04-1.32,7.26-3.23,9.77-6.63-.41,3.61,4.59,4.29,5.17.78.3-1.79-1.4-3.07-3.08-2.88.94-2.4,1.68-4.69,1.4-7.33,7.77,6.62,5.28,14.63-2.91,19.25-4.72,2.67-17.65,7.66-18.38-1.11ZM85.74,25.21c-2.18-2.35-6.11,1.01-3.99,3.65s6.3-1.16,3.99-3.65Z"/>
      <path class="cls-7" d="M102.24,48.5l-.68.51c2,.99,3.15,3.65,2.08,5.77-2.22-.99-3.63,1.85-5.59,1.25-2.91-.88-1-5.59-5.02-5.08-2.9.37-1.7,3.35-1.97,5.38-.43,3.18-4.39,3.08-4.85.71-.84-4.32,3.82-2.52,4.39-6.09.37-2.34-4.06-5.57-.55-7.15,2.88-1.3,3.67,2.06,6.37,1.5,2.21-.45,2.21-3.08,3.4-3.95,1.85-1.34,4.22-.13,4.22,2.09,0,1.91-2.48,2.53-1.78,5.06Z"/>
      <path class="cls-2" d="M102.24,48.5c.04.13.91,1.04,1.13,1.14,2.96,1.38,3.61-1.91,5.94-1.43,1.87.39,2.61,2.65,1.67,4.23-.67,1.12-3.53.79-4.07,3.37-.6,2.87,3.57,4.31,1.07,6.97-1.96,2.09-3.57-.27-5.04-1.03-.81-.42-1.4-.26-2.09-.7,2.88-.75,6.4-4.68,2.79-6.28,1.08-2.12-.07-4.78-2.08-5.77l.68-.51Z"/>
      <path class="cls-5" d="M100.84,61.06c.69.44,1.29.28,2.09.7-4.1-.93-3.65,2.39-4.98,3.74-2.37,2.42-4.2-1.46-6.55-1.15-3.01.39-2.5,3.16-4.21,4.19-2.29,1.39-4.71-1.05-3.55-3.56.88-1.9,3.35-.82,4.74-.91,2.82-.18,5.12-1.23,6.68-3.63,2.09.86,3.56,1.19,5.77.62Z"/>
      <path class="cls-8" d="M59.67,42.92c2.27,12.25-8.42,22.6-20.59,20.59-12.68-13.97,6.78-33.29,20.59-20.59ZM46.32,42.29c-.92.08-2.17.9-2.35,1.87-.41,2.23,1.38,3.28,1.39,3.47,0,.24-2.58,1.65-1,4.15s4.4-.47,4.67-.47c.24,0,1.16,1.8,3.41,1.31,1.6-.35,1.93-1.76,1.64-3.24-.18-.89-1.38-1.57-1.38-1.75,0-.24,2.62-1.81,1.07-4.21-1.7-2.63-4.02.21-4.73.21-.78,0-1.27-1.47-2.7-1.35Z"/>
      <path class="cls-3" d="M39.08,63.5c12.17,2.02,22.86-8.33,20.59-20.59,15.12,13.91-6.88,35.68-20.59,20.59Z"/>
      <path class="cls-6" d="M124.82,121.14c4.36-.9,3.89,6.7-.51,4.91-2.34-.95-1.91-4.41.51-4.91Z"/>
      <path class="cls-6" d="M131.8,130.91c4.36-.9,3.89,6.7-.51,4.91-2.34-.95-1.91-4.41.51-4.91Z"/>
      <path class="cls-6" d="M117.84,138.58c4.36-.9,3.89,6.7-.51,4.91-2.34-.95-1.91-4.41.51-4.91Z"/>
      <path class="cls-12" d="M90.72,17.1c1.68-.19,3.38,1.08,3.08,2.88-.58,3.51-5.58,2.82-5.17-.78.55-.75.62-1.92,2.09-2.09Z"/>
      <path class="cls-12" d="M74.41,21.55c-2.36-2.57,1.76-6.24,3.91-3.74,2.29,2.66-1.72,6.12-3.91,3.74Z"/>
      <path class="cls-12" d="M85.75,21.55c-2.19,2.38-6.2-1.08-3.91-3.74,2.15-2.5,6.27,1.17,3.91,3.74Z"/>
      <path class="cls-12" d="M82.94,9.85c4.16-.95,4.53,4.46,1.17,5.01-3.18.53-3.94-4.38-1.17-5.01Z"/>
      <path class="cls-12" d="M78.86,25.82c1.58,4.36-5.78,5.71-4.88.35.69-1.32,1.81-2.18,3.4-1.49.18.08,1.46,1.05,1.49,1.14Z"/>
      <path class="cls-12" d="M85.74,25.21c2.31,2.49-1.8,6.37-3.99,3.65s1.81-6,3.99-3.65Z"/>
      <path d="M46.32,42.29c1.44-.13,1.93,1.35,2.7,1.35.71,0,3.03-2.84,4.73-.21,1.56,2.41-1.07,3.97-1.07,4.21,0,.18,1.21.86,1.38,1.75.29,1.48-.04,2.89-1.64,3.24-2.25.49-3.17-1.31-3.41-1.31-.27,0-3.02,3.09-4.67.47s1.01-3.92,1-4.15c0-.2-1.79-1.24-1.39-3.47.18-.97,1.43-1.78,2.35-1.87Z"/>
    </g>
  </g>
</svg>