<?xml version="1.0" encoding="UTF-8"?>
<svg id="Capa_2" data-name="Capa 2" xmlns="http://www.w3.org/2000/svg" viewBox="0 0 183 183.06">
  <defs>
    <style>
      .cls-1 {
        fill: #fa8701;
      }

      .cls-2 {
        fill: #7fd161;
      }

      .cls-3 {
        fill: #fa2b3a;
      }

      .cls-4 {
        fill: #d7ebfd;
      }

      .cls-5 {
        fill: #026841;
      }

      .cls-6 {
        fill: #017b4e;
      }

      .cls-7 {
        fill: #fd9801;
      }

      .cls-8 {
        fill: #fc4755;
      }

      .cls-9 {
        fill: #fdd1a3;
      }

      .cls-10 {
        fill: #e31f2d;
      }

      .cls-11 {
        fill: #68c944;
      }

      .cls-12 {
        fill: #010000;
      }

      .cls-13 {
        fill: #017a4e;
      }

      .cls-14 {
        fill: #fdd302;
      }

      .cls-15 {
        fill: #e9f5fe;
      }

      .cls-16 {
        fill: #fdde74;
      }

      .cls-17 {
        fill: #fefefe;
      }

      .cls-18 {
        fill: #c3e1fe;
      }
    </style>
  </defs>
  <g id="Capa_1-2" data-name="Capa 1">
    <g>
      <path d="M79.19,0c4.47,2.26,7.59,8.89,8.68,13.62,5.84,25.32-20.88,45.52-43.39,32.33-3.44-2.01-7.98-4.97-4.89-9.39l18.57-18.53c1.26-.94,2.69-.63,3.91.16-.07.56.53,1.57.35,2.65-.23,1.35-10.32,11.22-12.12,13.04s-3.95,3.55-5.7,5.53c9.65,7.64,23.65,6.6,32.1-2.32,7.28-7.68,8.89-20.78,2.64-29.57-.27-.38-.92-1.63-1.38-1.45-2.08,1.52-6.59,7.7-8.96,7.84-.31.02-2.14-.58-2.29-.71-.84-.71-.78-2.58-.16-3.55.96-1.49,6.76-7.06,8.35-8.41.59-.5,1.29-.69,1.8-1.24h2.5Z"/>
      <path d="M123.78,0c6.52,1.54,12.2,6.05,14.54,12.39,1.22,3.3,2.25,7.03-1.5,9.03l-19.64,5.15c-2.51-.05-4.61-2.47-4.43-4.94s3.95-16.34,5.05-18.88c.68-1.58,1.47-1.82,2.78-2.75h3.21ZM127.35,7.49c-.15-.09-.31-.53-.8-.78-1.16-.59-2.61-.88-3.83-1.36-.88,4.65-3.04,9.59-3.84,14.19-.06.33-.28,1.17.09,1.16,1.99-.43,3.93-1.28,5.88-1.79,2.94-.77,5.98-1.3,8.9-2.16-.48-4.27-2.87-7.11-6.41-9.26Z"/>
      <path d="M145.54,36.03c-1.68,2.56-6.01-.41-8.19-.9-5.4-1.22-10.72-.46-15.46,2.4-.57.35-3.48,2.44-3.66,2.78-.39.7,1.87,2.96,2.71,2.73.55-.15,2.58-2,3.55-2.55,8.32-4.68,19.25-1.09,22.9,7.79.38.93,1.03,4.34,1.57,4.48l3.36-.32c.74-3.13-5-9.68-1.78-11.77,3.49-2.27,5.91,4.86,6.52,7.21.54,2.06.71,4.19,1.03,6.28,12.4,5.5,10.4,22.25,2.08,30.56,13.65,8.24,5.96,22.14-7.15,24.61-.43.11-.06,1.25,0,1.25h6.96c2.52,0,4.88,4.25,4.84,6.6-.45,27.76-21.66,56.35-47.68,65.43-17.17-.92-35.78,1.33-52.78.05-5.44-.41-16.99-8.19-21.38-11.8-13.94-11.45-24.29-29.27-26.54-47.31-.42-3.34-1.36-8.91,1.36-11.38.3-.28,2.54-1.59,2.69-1.59h7.67c-2.12-3.67-2.64-8.54-.44-12.31-5.7-4.13-10.04-10.13-11.24-17.21-3.39-19.94,16.93-35.84,35.58-27.73,1.04.45,4.54,2.86,4.82,2.88.62.06,2.73-1.01,3.66-1.2,7.09-1.43,14.67,1.53,19.89,6.32,2.14-2.74,4.12-5.41,7.62-6.47-1.96-9.68-.71-19.41,5.11-27.53,1.79-2.49,3.52-4.95,7.01-3.93,3.12.92,13.18,13.31,14.15,13.31,7.04-7.48,18.98-9.7,28.35-5.52,1.78.8,4.36,2.53,2.86,4.81ZM101.31,59.93c.73,1.9,2.56,3.79,2.9,6.02l6.01.76c.97-5.99,4.96-13.12,11.42-14.27.15-.54-.14-.59-.35-.89-3.13-4.52-12.41-12.28-16.77-16.58-1.47-1.45-3.59-4.29-5.16-5.37-.31-.22-.5-.53-.91-.18-5.55,6.93-7.19,16.46-4.57,24.94,2.95,1.51,5.43,2.84,7.43,5.59ZM130.48,43.97c-1.12.16-5.81,2.08-5.6,3.25l10.67,10.76,7.33-4.11c.23-6.46-6.2-10.81-12.4-9.9ZM52.44,59.58c-15.09-8.47-32.58,2.7-30.64,20.11.6,5.33,4.78,11.83,9.72,14.07l3.08-2.26c-19.49-11.14-4.64-39.06,15.5-28.72l2.34-3.2ZM147.33,110.58c-3.75-6.77,2.38-5.64,6.61-7.12,5.15-1.8,11.35-6.7,6.06-12.15-1.75-1.8-7.17-3.38-7.31-5.54s2.13-3,3.38-4.43c4.91-5.6,8.71-16.04,1.42-21.41-6.11-4.5-14.41-1.08-19.45,3.38-1.77,1.57-2.65,4.47-5.48,2.99-1.4-.74-2.73-5.12-4.54-6.87-5.38-5.2-10.13.59-12.01,5.75-.66,1.81-1.13,6.81-2.37,7.61-1.96,1.26-3.76-.47-5.48-1-9.39-2.9-9.16,8.58-7.21,14.53,3.25-4.23,6.07-13.72,12.84-8.39,4.11,3.24,7.84,8.51,11.95,11.95l15.34-15.33c2.45-1.88,5.63,1.3,3.75,3.75l-15.33,15.34,16.57,16.6,1.26.34ZM67.42,60.64c-15.57-2.55-16.94,12.76-8.74,22.48,1.45,1.71,4.46,3.16,3.59,5.73-.43,1.28-4.09,2.49-5.45,3.46-4.35,3.11-5.09,6.97-.81,10.61.96.81,4.07,3.14,4.93,1.71.64-1.07,1.15-2.8,1.85-4.03,2.46-4.27,6.39-8.17,10.82-10.41,1.43-.72,3.21-.96,4.51-1.9,0-.57-7.43-6.75-8.01-8.03-1.3-2.84,1.51-5.12,4.27-3.21s8.34,9.52,10.53,10.52c.8.36,4.45.36,6.06.72,1.94.43,4.07,1.21,5.7,2.32-1.16-4.49-2.56-8.61-2.13-13.37.36-3.95,2.09-6.75,4.62-9.63-2.01-6.13-7.71-11.6-12.98-4.8-1.8,2.32-2.71,8.04-6.62,5.48-.82-.54-1.11-1.53-1.78-2.14-3.09-2.78-6.22-4.84-10.36-5.51ZM48.15,70.27l.02-2.31c-12.36-7.66-23.92,8.41-12.68,17.65-.6-7.9,4.25-15.41,12.66-15.34ZM35.14,110.58h23.37l-5.71-3.38c-7.74-6.23-6-15.33,2.15-19.99-1.07-1.85-2.6-3.41-3.63-5.28-1.1-1.98-1.45-4.17-2.33-5.86-.65-1.25-3.8.2-4.72.83-3.88,2.65-3.75,7.7-2.53,11.76.53,1.79,2.11,3.42,1.04,5.3-.86,1.51-2.84,1.26-4.23,1.83-7.09,2.9-9.3,9.18-3.4,14.8ZM116.65,110.58c-5.04-6.6-5.23-15.48-.44-22.3l-6.33-6.24c-2.83,4.35-5.07,8.88-5.68,14.12,3.17,4.23,5.75,9.02,6.03,14.42h6.42ZM126.28,110.58c2.69.21,7.52.27,10.17,0,.49-.05,1.26-.17,1.6-.54-5.34-5.31-10.58-10.71-16.05-15.88-.73-.69-1.49-2.64-2.45-1.2-2.52,3.76-1.62,10.37,1.03,13.87,1.45,1.92,3.28,3.56,5.71,3.75ZM104.88,110.58c-3.5-23.35-36.3-23.32-39.95,0l3.88-.04c3.41-18.24,28.97-18.29,32.17.03h3.91ZM95.6,110.58c-2.93-11.35-18.31-11.21-21.4,0h21.4ZM33.53,127.35c28.72.17,57.45-.11,86.17-.02,1.94.18,1.79.58,2.65,1.81.2,1.92-.2,3.32-2.3,3.58-28.36.06-56.73-.14-85.09-.02-3.04.01-7.34-.38-10.18,0-.52.07-.6-.2-.51.51.25,2.11,2.1,6.32,3.03,8.39,5.7,12.79,16.32,24.52,28.46,31.46,1.61.92,6.86,3.84,8.35,4.14,1.91.39,5.12.05,7.23.08,14.8.22,29.62-.17,44.42,0,19.66-7.32,34.92-24.56,40.84-44.6h-24.79c-1.09,0-2.01-2.54-1.61-3.57.7-.99.65-1.6,2.3-1.8h25.5c.46-3.59,1.35-7.17,1.04-10.81l-.84-.59c-41.91.19-83.84-.25-125.75,0-3.49.02-6.99-.06-10.47.05l-.53.53c-.32.99.83,10.3,1.35,10.68,3.56.3,7.16.13,10.73.15Z"/>
      <path class="cls-8" d="M66.71,13.2c.15.13,1.98.73,2.29.71,2.37-.14,6.88-6.32,8.96-7.84.46-.18,1.11,1.07,1.38,1.45,6.25,8.79,4.64,21.89-2.64,29.57-1.57.23-3.02.99-4.57,1.32-4.23.89-7.25.02-10.77.46,1.23-2.75,1.58-9.14-2.95-8.13-1.27.28-1.38,1.03-1.69,2.07-.45,1.52-.42,2.66-.36,4.28-.49.5-5.41-2.42-6.06-3.21,1.8-1.83,11.89-11.69,12.12-13.04.18-1.09-.42-2.09-.35-2.65.1-.83,4.14-3.83,4.64-4.99ZM70.02,19.36c-1.3,1.31-.9,3.8.95,4.38,1.56.49,6.38.63,6.99-1.24,1.61-4.87-6.33-4.76-7.95-3.13ZM67.67,27.17c-1.8.28-2.76,2.56-1.83,4.19,1.02,1.79,3.97,4.42,6.21,3.41,3.89-1.74-2.14-7.95-4.38-7.6Z"/>
      <path class="cls-9" d="M145.54,36.03c1.99,1.14,3.5,2.93,4.99,4.64-3.21,2.09,2.52,8.64,1.78,11.77l-3.36.32c-.54-.14-1.19-3.55-1.57-4.48-3.65-8.88-14.58-12.47-22.9-7.79-.98.55-3,2.39-3.55,2.55-.84.23-3.09-2.03-2.71-2.73.19-.33,3.09-2.43,3.66-2.78,4.73-2.86,10.06-3.63,15.46-2.4,2.19.5,6.51,3.46,8.19.9Z"/>
      <path class="cls-3" d="M61.36,38.88c3.52-.45,6.55.43,10.77-.46,1.55-.33,2.99-1.09,4.57-1.32-8.45,8.92-22.45,9.96-32.1,2.32,1.75-1.98,3.86-3.66,5.7-5.53.65.79,5.57,3.71,6.06,3.21-.06-1.62-.09-2.76.36-4.28.1,2.14-.87,6.6,2.35,6.78.83.05,1.46-.61,2.29-.71Z"/>
      <path class="cls-1" d="M127.35,7.49c-1.05,3.42-2.23,6.9-2.97,10.41-.14.67-.67,1.15.48,1.01-1.95.51-3.89,1.36-5.88,1.79-.38.01-.15-.83-.09-1.16.8-4.59,2.96-9.54,3.84-14.19,1.21.48,2.67.77,3.83,1.36.49.25.66.7.8.78Z"/>
      <path class="cls-7" d="M127.35,7.49c3.54,2.15,5.93,4.99,6.41,9.26-2.92.85-5.96,1.39-8.9,2.16-1.15.14-.62-.34-.48-1.01.74-3.5,1.92-6.99,2.97-10.41Z"/>
      <path class="cls-4" d="M122.36,129.13c.34.48.24,1.17.87,1.1h6.39c.25-.08.35-.77.59-1.1-.4,1.02.52,3.57,1.61,3.57h24.79c-5.92,20.04-21.17,37.28-40.84,44.6-14.8-.18-29.63.21-44.42,0-17.47-9.13-31.4-25.34-36.39-44.59,28.36-.12,56.73.08,85.09.02,2.11-.26,2.5-1.66,2.3-3.58Z"/>
      <path class="cls-11" d="M147.33,110.58l-1.26-.34-16.57-16.6,15.33-15.34c1.88-2.45-1.3-5.63-3.75-3.75l-15.34,15.33c-4.1-3.43-7.83-8.71-11.95-11.95-6.77-5.33-9.59,4.16-12.84,8.39-1.95-5.95-2.18-17.42,7.21-14.53,1.72.53,3.51,2.26,5.48,1,1.24-.8,1.71-5.8,2.37-7.61,1.88-5.16,6.63-10.95,12.01-5.75,1.81,1.75,3.14,6.13,4.54,6.87,2.83,1.48,3.71-1.42,5.48-2.99,5.04-4.47,13.33-7.88,19.45-3.38,7.29,5.37,3.49,15.81-1.42,21.41-1.26,1.43-3.53,2.29-3.38,4.43s5.57,3.73,7.31,5.54c5.29,5.46-.91,10.36-6.06,12.15-4.24,1.48-10.36.35-6.61,7.12Z"/>
      <path class="cls-15" d="M32.46,115.94c41.91-.25,83.83.19,125.75,0l.84.59c.32,3.64-.57,7.23-1.04,10.81h-25.5c-1.65.21-1.61.82-2.3,1.8-.23.33-.33,1.02-.59,1.09h-6.39c-.63.08-.53-.6-.87-1.09-.86-1.23-.71-1.63-2.65-1.81-28.72-.08-57.46.19-86.17.02-.35-2.18-.83-4.41-1.07-6.6-.15-1.38-.38-3.49,0-4.81Z"/>
      <path class="cls-6" d="M67.42,60.64c4.14.68,7.27,2.73,10.36,5.51.67.61.96,1.61,1.78,2.14,3.91,2.56,4.82-3.16,6.62-5.48,5.27-6.81,10.98-1.33,12.98,4.8-2.54,2.88-4.27,5.67-4.62,9.63-.43,4.76.97,8.88,2.13,13.37-1.63-1.11-3.76-1.89-5.7-2.32-1.61-.36-5.26-.36-6.06-.72-2.19-1-7.81-8.63-10.53-10.52s-5.57.37-4.27,3.21c.58,1.28,8,7.46,8.01,8.03-1.3.94-3.08,1.18-4.51,1.9-4.42,2.24-8.36,6.13-10.82,10.41-2.11-3.57.59-7.7,3.4-9.98,1.01-.82,3.62-1.81,3.75-3.05s-2.79-3.95-3.66-5.26c-4-6.02-5.55-14.42-.62-20.4.47-.57.96-1.2,1.77-1.26Z"/>
      <path class="cls-18" d="M34.96,132.7c4.98,19.25,18.91,35.46,36.39,44.59-2.11-.03-5.32.31-7.23-.08-1.48-.3-6.73-3.22-8.35-4.14-12.15-6.95-22.77-18.68-28.46-31.46-.93-2.08-2.78-6.28-3.03-8.39-.09-.72,0-.45.51-.51,2.84-.38,7.14.01,10.18,0Z"/>
      <path class="cls-2" d="M35.14,110.58c-5.91-5.61-3.69-11.89,3.4-14.8,1.39-.57,3.37-.33,4.23-1.83,1.07-1.88-.5-3.51-1.04-5.3-1.21-4.07-1.35-9.11,2.53-11.76.92-.63,4.07-2.07,4.72-.83.88,1.69,1.24,3.88,2.33,5.86,1.04,1.88,2.56,3.44,3.63,5.28-8.16,4.66-9.89,13.75-2.15,19.99l5.71,3.38h-23.37Z"/>
      <path class="cls-5" d="M67.42,60.64c-.81.06-1.3.69-1.77,1.26-4.92,5.98-3.37,14.39.62,20.4.87,1.31,3.78,4.01,3.66,5.26s-2.74,2.24-3.75,3.05c-2.81,2.28-5.51,6.41-3.4,9.98-.71,1.23-1.21,2.96-1.85,4.03-.86,1.43-3.97-.9-4.93-1.71-4.28-3.64-3.53-7.5.81-10.61,1.37-.98,5.02-2.19,5.45-3.46.87-2.57-2.15-4.01-3.59-5.73-8.2-9.72-6.82-25.03,8.74-22.48Z"/>
      <path class="cls-3" d="M104.52,34.96c4.36,4.3,13.64,12.06,16.77,16.58.21.3.5.35.35.89-6.46,1.15-10.45,8.28-11.42,14.27l-6.01-.76c-.34-2.23-2.17-4.11-2.9-6.02-1.2-3.12-1.88-8.15-1.07-11.42,2.76,1.21,10.14.34,7.65-3.9-.81-1.37-5.9-1.41-7.3-1.09.56-2.58,1.49-5.45,2.86-7.69.29-.47.31-1.04,1.07-.88ZM104.62,60.89c2.92,2.35,9.17-3.98,6.84-6.66-2.84-3.27-9.95,4.16-6.84,6.66Z"/>
      <path class="cls-9" d="M52.44,59.58l-2.34,3.2c-20.14-10.34-34.99,17.58-15.5,28.72l-3.08,2.26c-4.94-2.24-9.12-8.74-9.72-14.07-1.94-17.41,15.55-28.58,30.64-20.11Z"/>
      <path class="cls-9" d="M104.88,110.58h-3.91c-3.19-18.34-28.76-18.28-32.17-.04l-3.88.04c3.66-23.32,36.45-23.35,39.95,0Z"/>
      <path class="cls-10" d="M104.52,34.96c-.76-.17-.78.4-1.07.88-1.37,2.24-2.3,5.11-2.86,7.69-2.02.46-2.29,4.15-.36,4.99-.81,3.27-.13,8.29,1.07,11.42-2-2.75-4.49-4.08-7.43-5.59-2.62-8.48-.97-18.01,4.57-24.94.41-.34.6-.03.91.18,1.57,1.08,3.69,3.92,5.16,5.37Z"/>
      <path class="cls-17" d="M116.65,110.58h-6.42c-.28-5.4-2.87-10.19-6.03-14.42.61-5.24,2.86-9.77,5.68-14.12l6.33,6.24c-4.79,6.82-4.6,15.7.44,22.3Z"/>
      <path class="cls-13" d="M95.6,110.58h-21.4c3.09-11.21,18.47-11.35,21.4,0Z"/>
      <path class="cls-16" d="M122,94.18c5.47,5.17,10.71,10.57,16.05,15.88-.34.37-1.11.49-1.6.54-2.65.27-7.48.2-10.17,0-4.42-4.17-6.11-10.58-4.28-16.41Z"/>
      <path class="cls-4" d="M32.46,115.94c-.37,1.32-.14,3.44,0,4.81.24,2.19.72,4.43,1.07,6.6-3.57-.02-7.16.15-10.73-.15-.52-.37-1.68-9.69-1.35-10.68l.53-.53c3.49-.11,6.99-.03,10.47-.05Z"/>
      <path class="cls-14" d="M122,94.18c-1.83,5.83-.14,12.24,4.28,16.41-2.43-.19-4.25-1.82-5.71-3.75-2.64-3.5-3.55-10.1-1.03-13.87.96-1.44,1.73.52,2.45,1.2Z"/>
      <path class="cls-12" d="M70.02,19.36c1.62-1.62,9.55-1.74,7.95,3.13-.62,1.87-5.44,1.73-6.99,1.24-1.85-.58-2.26-3.07-.95-4.38Z"/>
      <path class="cls-12" d="M61.36,38.88c-.83.11-1.46.76-2.29.71-3.21-.18-2.25-4.64-2.35-6.78.31-1.04.42-1.79,1.69-2.07,4.53-1,4.18,5.39,2.95,8.13Z"/>
      <path class="cls-12" d="M67.67,27.17c2.24-.35,8.27,5.86,4.38,7.6-2.24,1-5.18-1.63-6.21-3.41-.93-1.63.02-3.9,1.83-4.19Z"/>
      <path class="cls-12" d="M104.62,60.89c-3.11-2.5,4-9.93,6.84-6.66,2.33,2.68-3.93,9.01-6.84,6.66Z"/>
      <path class="cls-12" d="M100.24,48.51c-1.93-.85-1.66-4.53.36-4.99,1.4-.32,6.49-.28,7.3,1.09,2.49,4.25-4.89,5.11-7.65,3.9Z"/>
    </g>
  </g>
</svg>