<?xml version="1.0" encoding="UTF-8"?>
<svg id="Capa_2" data-name="Capa 2" xmlns="http://www.w3.org/2000/svg" viewBox="0 0 183 183">
  <defs>
    <style>
      .cls-1 {
        fill: #e3ecf1;
      }

      .cls-2 {
        fill: #c67b58;
      }
    </style>
  </defs>
  <g id="Capa_1-2" data-name="Capa 1">
    <g>
      <path d="M158.48,24.52c.51.51,3.18,1.45,4.15,2.09,4.71,3.07,8.45,8.97,8.94,14.6,1.42,16.22-14.94,27.04-29.37,19.85-.72.66-2.04,1.24-1.32,2.27s2.23,2.3,3.03,3.41c5.52,7.69,7.49,18.15,2.41,26.61-3.49,5.81-14.88,12.34-20.56,17.25-7.09,6.13-13.66,13.15-19.44,20.52-5.24,6.68-8.66,14.62-17.57,17.03-9.67,2.61-18.7-1.45-25.73-7.92-.49.43-1.59,1.17-1.59,1.87.01,1.04,1.82,4.33,2.03,6.17,2.44,20.97-23.11,31.32-35.63,15.29-1.09-1.39-2.27-4.74-2.96-5.43s-3.91-1.81-5.22-2.8c-16.29-12.33-6.04-38.25,15.09-35.78,1.99.23,4.86,1.92,6.17,2.04.63.06,1.46-1.14,1.87-1.6-3.92-4.53-7.47-9.67-8.45-15.74-2.76-17.11,10.39-21.49,21.13-30.42,7.81-6.5,15.3-14.3,21.58-22.3,6.03-7.69,9.05-15.78,19.91-17.55,9-1.46,16.89,2.55,23.4,8.44.46-.4,1.65-1.24,1.6-1.87-.12-1.31-1.81-4.18-2.04-6.17-2.6-22.21,25.49-31.6,36.77-13.59.54.86,1.32,3.23,1.81,3.72ZM158.03,38.53c-1.8,5.65-10.06,4.69-10.91-1.06-.5-3.39,2.16-5.33.17-9.78-3.98-8.9-18.79-4.57-15.68,6.4.54,1.91,2,2.73,2.81,4.33,3.07,6.07-3.28,8.2-5.97,12.37l3.77,3.77c3.96-2.5,6.18-8.73,11.9-6.22,3.49,1.53,3.46,3.96,8.74,3.39,6.23-.67,9.66-8.69,5.17-13.2ZM98.36,45.39c-.73.11-1.93.61-2.6.97-2.71,1.5-9.6,12.26-12.3,15.52-6.26,7.54-13.69,14.97-21.23,21.23-3.28,2.72-13.34,9.06-15.09,11.66-3.05,4.52-1.3,10.78,1.9,14.75,8.39,7.13,16.01,17.65,24.44,24.44,4.12,3.32,10.9,5.09,15.35,1.43,2.82-2.31,8.13-11.1,11.06-14.63,6.33-7.63,13.59-14.9,21.23-21.23,3.28-2.72,13.34-9.07,15.09-11.66,2.95-4.38,1.35-10.36-1.58-14.36-8.4-7.43-16.07-17.57-24.57-24.65-3.41-2.84-7.19-4.19-11.69-3.47ZM25.32,144.12c1.87-5.9,10.41-4.51,10.99,1.35.32,3.26-2.08,4.83-.35,9.24,3.58,9.13,18.97,5.02,15.78-6.15-.97-3.4-4.41-4.09-3.42-8.74.61-2.9,4.75-4.99,6.28-7.28.97-1.44-2.29-3.68-3.41-4.49-3.99,2.49-6.21,8.78-11.95,6.26-3.49-1.53-3.47-3.96-8.74-3.39-6.29.68-9.63,8.66-5.17,13.2Z"/>
      <path class="cls-2" d="M98.36,45.39c4.51-.71,8.28.63,11.69,3.47,8.51,7.08,16.18,17.23,24.57,24.65,2.92,3.99,4.53,9.98,1.58,14.36-1.75,2.59-11.82,8.94-15.09,11.66-7.63,6.33-14.9,13.59-21.23,21.23-2.92,3.53-8.24,12.31-11.06,14.63-4.45,3.66-11.23,1.89-15.35-1.43-8.43-6.78-16.05-17.3-24.44-24.44-3.19-3.97-4.95-10.23-1.9-14.75,1.75-2.6,11.81-8.94,15.09-11.66,7.54-6.26,14.97-13.69,21.23-21.23,2.71-3.26,9.6-14.02,12.3-15.52.66-.37,1.87-.86,2.6-.97Z"/>
      <path class="cls-1" d="M25.32,144.12c-4.45-4.54-1.11-12.52,5.17-13.2,5.27-.57,5.25,1.86,8.74,3.39,5.75,2.52,7.96-3.77,11.95-6.26,1.12.81,4.38,3.04,3.41,4.49-1.53,2.28-5.67,4.37-6.28,7.28-.98,4.66,2.45,5.34,3.42,8.74,3.18,11.17-12.21,15.29-15.78,6.15-1.73-4.41.67-5.98.35-9.24-.57-5.86-9.11-7.25-10.99-1.35Z"/>
      <path class="cls-1" d="M158.03,38.53c4.49,4.51,1.05,12.53-5.17,13.2-5.27.57-5.25-1.86-8.74-3.39-5.73-2.51-7.94,3.72-11.9,6.22l-3.77-3.77c2.69-4.18,9.05-6.31,5.97-12.37-.81-1.6-2.26-2.42-2.81-4.33-3.11-10.97,11.69-15.3,15.68-6.4,1.99,4.46-.67,6.4-.17,9.78.86,5.75,9.11,6.71,10.91,1.06Z"/>
    </g>
  </g>
</svg>