<?xml version="1.0" encoding="UTF-8"?>
<svg id="Capa_2" data-name="Capa 2" xmlns="http://www.w3.org/2000/svg" viewBox="0 0 179 179">
  <defs>
    <style>
      .cls-1 {
        fill: #010101;
      }

      .cls-2 {
        fill: #f3e64d;
      }

      .cls-3 {
        fill: #e9a982;
      }

      .cls-4 {
        fill: #faf097;
      }

      .cls-5 {
        fill: #fea0ab;
      }

      .cls-6 {
        fill: #c66d33;
      }

      .cls-7 {
        fill: #fedcce;
      }

      .cls-8 {
        fill: #36d39a;
      }

      .cls-9 {
        fill: #7fdfb6;
      }

      .cls-10 {
        fill: #6b6b6b;
      }

      .cls-11 {
        fill: #de8957;
      }

      .cls-12 {
        fill: #414141;
      }
    </style>
  </defs>
  <g id="Capa_1-2" data-name="Capa 1">
    <g>
      <path d="M22.68,0c.16.44.67.36,1.05.35.3-.01.6-.01.7-.35.12,0,.23,0,.35,0,.06,0,.27.3.55.33,6.73.53,13.14,1.32,19.22,4.49,6.88-5,13.33-.25,20.18.42,10.12.99,20.61-1.04,30.94.81,17.15,3.07,32.55,15.03,40.41,30.43.89.54,6.87,0,8.55.17,11.16,1.11,14.69,15.58,5.52,21.92-.74.51-2.9,1.03-2.85,1.91l27.61,79.88c3.06,9.77,1.59,20.34-3.53,29.12-1.74,2.98-5.74,8.86-9.29,9.2-8.81.85-18.98-.68-27.94,0-1.21.14-2.64-1.38-2.61-2.45.03-.81,1.12-2.91,2.29-2.77l28.27-.35c6.73-7.34,10.61-17.95,8.52-27.94-.05-.24.18-.74-.21-.7h-92.96c2.21,10.22-1.09,20.64-6.98,28.96,16.87.5,34.12-.65,50.94,0,1.2.05,3.48-.28,4.21.94.07.12.68,1.75.68,1.85.05,1.23-1.61,2.72-2.95,2.46H24.94c-3.09-.39-6.49-5.08-8.12-7.59-9.8-15-5.89-26.4-.77-41.81,7.64-22.99,16.12-45.73,23.74-68.73,0-.47-4.95.99-5.52,1.11-11.29,2.24-30.21,4.89-31.48-11.22-.97-12.3.72-25.91.06-38.35C3.48,5.94,7.6,1.86,13.26,0h9.42ZM40.47,8.73c-2-.61-3.95-1.38-5.99-1.86-3.76-.89-8.45-1.48-12.31-1.65-7.67-.32-13.48-.24-14.16,8.9-.9,12.09.36,25.8.45,37.96,1.29,3.52,4,5.54,7.76,5.85,2.38.2,6.94-.14,9.43-.37,4.7-.42,9.28-1.49,13.79-2.79-6.38-12.09-6.76-29.89-.88-42.23.37-.77,2.28-3.33,1.93-3.82ZM53.73,8.03c-5.97-.92-9.37,3.8-11.33,8.73-3.72,9.33-3.76,24.18.51,33.32,1.92,4.12,5.64,9,10.82,7.32-8.7-7.94-10.15-21.94-8.21-32.98,1.08-6.13,3.76-12.01,8.21-16.39ZM129.8,36.64c-.27-1.13-1.1-2.35-1.73-3.32-8.14-12.55-23.94-21.84-38.92-22.84-7.47-.5-20.22-.67-27.58-.02-10.54.94-12.11,19.46-11.28,27.36.58,5.48,3.82,16.32,10.27,17.29s12.62-.63,19.76,1.17c8.42,2.12,11.85,7.06,18.53,10.78,6.11,3.4,12.78-.9,11.67-7.83-1.19-7.46-17.25-9.76-13.24-18.64.66-1.46,1.78-2.46,3.27-3.01.86-.31,3.84-.94,4.64-.94h24.6ZM148.17,43.74c-1.3-1.21-3.53-1.74-5.28-1.88-11.8.57-24.24-.72-35.97,0-1.03.06-4.86.28-5.03,1.28-.24,1.44,12.65,8.6,12.6,11.94l31.01-.11c4.67-1.31,6.11-8,2.66-11.23ZM88.28,65.95c-7.81-4.8-15.12-6.75-24.57-5.55-4.35.55-9.2,3.41-13.82,2.59l9.06,26.18c9.53.31,19.09.14,28.63.16,19.13.04,38.27-.02,57.41,0,1.47-.05,2.67,1.44,2.61,2.8-.05,1.19-1.33,2.52-2.61,2.45-19.02,0-38.04-.03-57.06,0-9.06,0-18.16-.15-27.21.17l15.4,44.44c6.72.1,13.47.04,20.19.05,24.19.05,48.39-.03,72.58,0-5.39-15.72-10.98-31.4-16.4-47.1-3.58-10.36-6.92-20.82-10.52-31.17l-.51-.53-25.6-.05c.26,5.65-3.58,11.96-9.6,12.56-6.94.69-12.45-3.58-17.97-6.97ZM44.32,63.51l-27.04,78.86c-3.25,10.86.22,23.31,8.44,30.98l37.26.06c1.41-.27,5-5.64,5.82-7.09,4.23-7.43,5.3-16.3,2.74-24.5l-27.22-78.32Z"/>
      <path class="cls-12" d="M23.73,0v.35c-.38.01-.88.09-1.05-.35h1.05Z"/>
      <path class="cls-10" d="M24.42,0c-.1.34-.4.34-.7.35V0h.7Z"/>
      <path class="cls-3" d="M170.63,145.16c2.09,9.99-1.79,20.6-8.52,27.94l-28.27.35c-1.17-.14-2.26,1.96-2.29,2.77h-5.23c0-.1-.61-1.73-.68-1.85-.73-1.22-3-.89-4.21-.94-10.16-7.25-17.59-17.26-22.68-28.61l71.88.35Z"/>
      <path class="cls-6" d="M44.32,63.51l27.22,78.32c2.55,8.2,1.48,17.07-2.74,24.5-.82,1.45-4.42,6.82-5.82,7.09l-37.26-.06c-8.22-7.67-11.69-20.12-8.44-30.98l27.04-78.86Z"/>
      <path class="cls-7" d="M129.8,36.64h-24.6c-.8,0-3.78.63-4.64.94-1.5.54-2.61,1.55-3.27,3.01-4.02,8.88,12.04,11.17,13.24,18.64,1.11,6.93-5.56,11.23-11.67,7.83-6.68-3.72-10.11-8.66-18.53-10.78-7.15-1.8-13.31-.2-19.76-1.17s-9.69-11.81-10.27-17.29c-.83-7.9.74-26.42,11.28-27.36,7.36-.66,20.11-.48,27.58.02,14.98,1.01,30.78,10.29,38.92,22.84.63.98,1.46,2.19,1.73,3.32Z"/>
      <path class="cls-4" d="M152.48,92.12c5.42,15.71,11.01,31.38,16.4,47.1-24.19-.03-48.39.05-72.58,0l-3.49-11.51c1.97-.89,4.78-4,5.15-6.19.83-4.95-2.37-7.11-6.13-9.06-.56-.29-1.18-.21-1.12-1.15.55-1.39.82-2.27,2.89-1.68,1.43.41,1.09,1.87,1.46,2.73,1.26,2.92,4.99,2.55,5.1-.88.18-5.48-6.55-8.93-11.2-6.46l-1.05-10.47c19.01-.02,38.04,0,57.06,0,1.28.07,2.56-1.26,2.61-2.45h4.88ZM137.83,114.1c-10.12,10.82,8.52,19.82,16.4,11.34,7.3-7.86-4.35-16.23-12.21-13.43.15-1.1.14-4.54-.26-5.49-1-2.34-4.66-1.75-4.99.77-.2,1.51-.3,6.03,1.06,6.82ZM109.82,109.28c-3.45.71-1.83,4.21.33,5.81,3.94,2.93,10.23,2.74,13.68-.85,2.28-2.37.93-5.94-2.42-4.87-1.6.51-2.07,2.66-5.05,2.64s-4.29-3.2-6.54-2.73Z"/>
      <path class="cls-3" d="M152.48,92.12h-4.88c.06-1.36-1.14-2.85-2.61-2.8-19.13-.01-38.28.04-57.41,0l.7-23.38c5.51,3.39,11.02,7.67,17.97,6.97,6.02-.6,9.86-6.91,9.6-12.56l25.6.05.51.53c3.6,10.36,6.95,20.81,10.52,31.17Z"/>
      <path class="cls-8" d="M40.47,8.73c.35.49-1.56,3.05-1.93,3.82-5.88,12.34-5.5,30.14.88,42.23-4.51,1.3-9.08,2.37-13.79,2.79-2.49.22-7.05.56-9.43.37-3.76-.31-6.46-2.33-7.76-5.85-.08-12.16-1.35-25.87-.45-37.96.68-9.13,6.49-9.22,14.16-8.9,3.86.16,8.55.76,12.31,1.65,2.04.48,3.99,1.26,5.99,1.86Z"/>
      <path class="cls-11" d="M121.43,173.42c-16.83-.65-34.07.49-50.94,0,5.89-8.32,9.19-18.74,6.98-28.96h92.96c.39-.05.16.45.21.7l-71.88-.35c5.09,11.35,12.52,21.36,22.68,28.61Z"/>
      <path class="cls-11" d="M88.28,65.95l-.7,23.38c-9.54-.02-19.09.15-28.63-.16l-9.06-26.18c4.62.82,9.47-2.04,13.82-2.59,9.45-1.19,16.77.75,24.57,5.55Z"/>
      <path class="cls-2" d="M87.93,94.56l1.05,10.47c-1.78.94-3.95,4.6-3.84,6.63-5.3,1.06-10.37,5.52-7.98,11.29s10.55,7.07,15.66,4.76l3.49,11.51c-6.72-.01-13.47.05-20.19-.05l-15.4-44.44c9.05-.32,18.15-.16,27.21-.17Z"/>
      <path class="cls-11" d="M148.17,43.74c3.45,3.23,2.01,9.92-2.66,11.23l-31.01.11c.05-3.34-12.83-10.5-12.6-11.94.16-.99,4-1.21,5.03-1.28,11.72-.72,24.17.58,35.97,0,1.74.14,3.98.66,5.28,1.88Z"/>
      <path class="cls-9" d="M53.73,8.03c-4.45,4.38-7.13,10.26-8.21,16.39-1.94,11.05-.49,25.04,8.21,32.98-5.18,1.68-8.9-3.21-10.82-7.32-4.27-9.14-4.23-23.99-.51-33.32,1.96-4.92,5.36-9.65,11.33-8.73Z"/>
      <path class="cls-5" d="M137.83,114.1c1.78,1.03,3.91-.07,4.19-2.09,7.86-2.8,19.51,5.57,12.21,13.43-7.88,8.48-26.52-.51-16.4-11.34Z"/>
      <path class="cls-5" d="M92.81,127.71c-5.11,2.31-13.35.81-15.66-4.76s2.68-10.23,7.98-11.29c.07,1.29,1.55,2.76,2.91,2.69,1.97-.11,2.12-1.65,2.67-3.04-.07.94.56.86,1.12,1.15,3.75,1.95,6.96,4.11,6.13,9.06-.37,2.19-3.18,5.3-5.15,6.19Z"/>
      <path d="M88.98,105.03c4.65-2.47,11.37.98,11.2,6.46-.11,3.43-3.84,3.8-5.1.88-.37-.86-.04-2.32-1.46-2.73-2.07-.6-2.34.29-2.89,1.68s-.7,2.93-2.67,3.04c-1.36.07-2.84-1.4-2.91-2.69-.11-2.03,2.06-5.68,3.84-6.63Z"/>
      <path d="M109.82,109.28c2.26-.46,3.71,2.71,6.54,2.73,2.98.02,3.45-2.13,5.05-2.64,3.36-1.08,4.7,2.5,2.42,4.87-3.46,3.59-9.74,3.78-13.68.85-2.15-1.6-3.77-5.1-.33-5.81Z"/>
      <path class="cls-1" d="M142.01,112.01c-.27,2.02-2.41,3.13-4.19,2.09-1.37-.79-1.26-5.31-1.06-6.82.33-2.51,3.99-3.11,4.99-.77.41.95.41,4.39.26,5.49Z"/>
    </g>
  </g>
</svg>